<?xml version="1.0" encoding="UTF-8"?>
<svg id="Layer_2" data-name="Layer 2" xmlns="http://www.w3.org/2000/svg" viewBox="0 0 176.2 312.38">
  <defs>
    <style>
      .cls-1 {
        fill: none;
        stroke: #fff;
        stroke-linecap: round;
        stroke-linejoin: round;
        stroke-width: 10px;
      }

      .cls-2 {
        fill: #fff;
        opacity: .4;
      }
    </style>
  </defs>
  <g id="Layer_1-2" data-name="Layer 1">
    <g>
      <path class="cls-2" d="m175.13,141.72L107.04,5.54c-4.72-9.44-18.94-6.08-18.94,4.47v110.17c20.53,0,37.34,15.87,38.87,36,0,0,0,0,0,0h39.21c7.43,0,12.27-7.82,8.94-14.47Z"/>
      <path class="cls-2" d="m49.1,159.19c0-1.01.05-2.01.13-3,0,0,0,0,0,0H10.01c-7.43,0-12.27,7.82-8.94,14.47l68.09,136.17c4.72,9.44,18.94,6.08,18.94-4.47v-104.17c-21.54,0-39-17.46-39-39Z"/>
      <circle class="cls-1" cx="88.1" cy="159.19" r="39"/>
    </g>
  </g>
</svg>