<?xml version="1.0" standalone="no"?>
<!DOCTYPE svg PUBLIC "-//W3C//DTD SVG 20010904//EN"
 "http://www.w3.org/TR/2001/REC-SVG-20010904/DTD/svg10.dtd">
<svg version="1.0" xmlns="http://www.w3.org/2000/svg"
 width="1024.000000pt" height="1024.000000pt" viewBox="0 0 1024.000000 1024.000000"
 preserveAspectRatio="xMidYMid meet">

<g transform="translate(0.000000,1024.000000) scale(0.100000,-0.100000)"
fill="#e2e8f0" stroke="none">
<path d="M4600 9822 c-52 -13 -97 -26 -99 -28 -2 -2 -1 -10 3 -19 5 -15 7 -15
22 -1 21 22 43 26 158 29 l98 2 -43 21 -44 21 -95 -25z"/>
<path d="M4935 9770 c-17 -7 -15 -9 12 -9 48 -1 48 -16 1 -63 -24 -24 -35 -36
-23 -27 34 28 101 58 145 65 l41 7 -31 18 c-32 20 -109 25 -145 9z"/>
<path d="M5177 9743 c41 -5 61 -28 46 -53 -11 -16 -6 -18 54 -25 50 -5 86 -18
149 -51 46 -24 87 -44 91 -44 5 1 -7 14 -25 29 -28 24 -32 32 -23 49 9 18 4
21 -52 42 -34 12 -84 31 -112 41 -29 11 -73 18 -105 17 -33 -1 -42 -3 -23 -5z"/>
<path d="M5630 9724 c0 -23 146 -163 175 -169 11 -2 54 -10 95 -19 41 -8 76
-13 78 -11 2 2 -38 16 -90 31 -89 27 -96 32 -171 104 -43 41 -80 77 -82 79 -3
2 -5 -4 -5 -15z"/>
<path d="M4340 9655 c-25 -13 -40 -24 -35 -24 6 0 30 11 55 24 25 13 41 24 35
24 -5 0 -30 -11 -55 -24z"/>
<path d="M5049 9649 c-38 -14 -110 -159 -79 -159 5 0 10 11 10 25 0 28 48 87
91 112 48 29 34 42 -22 22z"/>
<path d="M3885 9600 c-42 -11 -1 -11 50 -1 34 7 35 9 10 9 -16 0 -43 -4 -60
-8z"/>
<path d="M4123 9603 c9 -2 23 -2 30 0 6 3 -1 5 -18 5 -16 0 -22 -2 -12 -5z"/>
<path d="M3700 9555 c-181 -45 -395 -180 -449 -283 -7 -12 -9 -27 -6 -32 4 -6
60 -10 128 -10 113 -1 186 -10 329 -41 47 -11 61 -10 85 1 l28 14 -55 6 c-70
8 -109 27 -116 57 -7 27 -7 27 -46 7 -29 -15 -71 -18 -163 -12 -16 1 -41 -2
-55 -6 -16 -4 -32 -2 -45 7 -30 23 -9 55 88 129 80 62 172 109 307 157 64 23
49 25 -30 6z"/>
<path d="M5097 9495 c-66 -23 -112 -84 -90 -118 4 -7 6 -21 5 -32 -2 -15 6 -9
30 20 64 79 95 101 157 119 34 9 61 19 61 22 0 10 -128 2 -163 -11z"/>
<path d="M5444 9503 c-12 -2 -30 -13 -40 -24 -21 -23 -21 -23 46 -3 31 9 78
14 116 12 49 -2 60 0 52 10 -10 12 -123 15 -174 5z"/>
<path d="M6049 9490 c24 -11 60 -20 81 -20 25 0 50 -9 78 -30 55 -40 54 -54
-3 -47 -25 2 -80 -1 -123 -9 -42 -7 -117 -14 -167 -14 -79 -1 -98 2 -160 29
-62 27 -71 29 -82 15 -6 -9 -29 -18 -50 -21 -40 -5 -187 -63 -179 -70 2 -2 30
0 63 6 32 5 111 12 175 15 116 5 117 5 135 -20 l19 -25 104 26 c134 35 258 39
289 11 12 -11 21 -27 21 -38 0 -15 -8 -18 -42 -18 -24 0 -50 -5 -58 -10 -11
-7 1 -10 41 -10 46 0 71 -7 128 -37 125 -64 185 -132 129 -146 -16 -5 -30 3
-54 29 -32 34 -34 34 -124 35 -88 2 -94 0 -178 -41 -74 -37 -105 -61 -208
-161 -109 -107 -130 -122 -215 -162 -61 -28 -105 -56 -123 -78 -25 -29 -27
-34 -12 -37 10 -2 28 5 39 16 54 49 137 80 137 52 0 -14 -73 -113 -106 -143
-37 -34 -65 -118 -73 -212 -7 -91 -13 -105 -45 -105 -40 0 -46 18 -46 135 -1
123 -17 127 -28 7 -6 -60 -10 -67 -30 -70 -16 -3 -38 13 -82 56 -59 59 -60 61
-60 116 0 59 -9 71 -25 34 -15 -35 -67 -36 -94 -2 -11 15 -21 38 -21 52 0 20
-3 23 -12 14 -23 -23 -76 -14 -110 18 -32 31 -41 33 -93 21 l-30 -7 45 -23
c25 -13 61 -35 80 -50 19 -14 55 -37 80 -51 27 -15 51 -37 60 -57 8 -18 21
-33 28 -33 7 0 34 -14 60 -32 98 -67 462 -378 612 -523 58 -56 122 -114 143
-130 48 -36 237 -269 237 -293 0 -9 14 -25 31 -35 26 -14 30 -21 25 -43 -6
-23 -4 -25 14 -19 23 7 50 -10 50 -31 0 -8 -12 -20 -27 -26 -27 -12 -26 -12
27 -18 66 -6 79 -30 31 -54 -48 -25 -64 -20 -111 39 -25 29 -51 54 -58 55 -7
0 -41 30 -75 66 -34 36 -89 87 -122 112 -33 25 -112 96 -175 157 -155 149
-186 172 -211 157 -28 -18 -40 -7 -28 25 12 32 -12 63 -48 63 -23 0 -23 -2
-17 -49 9 -72 0 -96 -64 -158 -57 -55 -55 -58 18 -32 19 6 41 13 48 15 6 2 12
16 12 32 0 33 12 46 51 56 18 4 31 1 39 -9 18 -21 5 -44 -31 -57 -22 -7 -27
-14 -20 -21 6 -6 11 -20 11 -30 0 -41 -238 -257 -283 -257 -8 0 -17 5 -19 12
-5 14 -39 -20 -71 -71 -12 -19 -26 -34 -32 -33 -11 3 -11 41 -1 82 5 21 4 20
-8 -5 -8 -16 -18 -59 -22 -94 -5 -52 -3 -71 11 -98 24 -43 35 -42 35 5 0 86
124 232 155 182 3 -5 -8 -41 -25 -79 -25 -59 -30 -82 -30 -152 0 -53 6 -99 17
-127 15 -40 15 -46 0 -78 -20 -41 -21 -74 -5 -143 9 -38 9 -54 0 -63 -8 -8 -6
-17 8 -36 45 -56 20 -183 -71 -358 -55 -107 -69 -142 -69 -178 0 -25 5 -48 10
-51 6 -4 10 11 10 37 0 51 28 114 98 221 51 78 64 117 78 240 3 31 10 60 15
63 5 3 25 -10 44 -29 32 -32 35 -40 35 -91 0 -32 -6 -69 -14 -84 -7 -15 -16
-44 -20 -65 -4 -21 -10 -46 -13 -55 -6 -15 -5 -16 12 -2 10 8 29 38 41 67 30
67 41 72 59 29 33 -78 16 -124 -74 -207 -63 -58 -74 -85 -45 -113 34 -34 94
-14 159 54 51 53 102 80 168 87 74 8 108 33 168 121 46 68 53 85 58 142 4 36
10 71 14 77 26 41 -126 193 -192 193 -14 0 -46 3 -69 6 -27 4 -48 2 -55 -5 -8
-8 -7 -11 5 -11 8 0 21 -7 28 -15 7 -8 26 -15 42 -15 28 0 78 -40 78 -62 0 -5
9 -7 19 -3 24 7 35 -9 22 -34 -8 -14 -6 -22 8 -35 23 -21 35 -100 19 -129 -7
-12 -12 -40 -12 -62 -1 -36 -4 -40 -26 -40 -22 0 -26 6 -36 55 l-10 55 -20
-33 c-25 -44 -112 -108 -127 -93 -7 7 6 28 46 69 71 75 81 107 42 138 -15 12
-44 24 -64 28 -155 24 -186 35 -219 73 -101 115 -140 310 -83 421 12 23 27 68
35 100 16 70 27 92 78 157 54 68 101 102 176 125 74 23 145 25 258 6 70 -11
89 -19 128 -51 55 -45 91 -90 133 -165 28 -51 32 -69 47 -226 8 -94 20 -184
26 -198 14 -38 12 -146 -4 -238 -15 -82 -63 -204 -118 -296 -47 -79 -138 -168
-187 -183 -31 -9 -48 -23 -76 -65 -19 -30 -35 -58 -35 -64 0 -18 -57 -40 -89
-34 -17 4 -38 3 -48 -1 -15 -5 -11 -9 17 -18 43 -15 46 -40 5 -47 -45 -9 -67
-1 -62 21 8 30 -11 22 -33 -13 -22 -37 -27 -59 -8 -40 17 17 55 15 62 -4 7
-19 -19 -54 -40 -54 -7 0 -19 6 -27 14 -12 13 -21 8 -67 -34 -68 -63 -105 -80
-172 -80 l-53 0 39 -23 c22 -12 39 -26 37 -32 -4 -17 -80 -7 -135 18 -69 32
-80 52 -71 132 4 39 3 65 -4 69 -15 10 -41 -35 -41 -72 0 -40 -23 -52 -50 -27
-24 21 -25 16 -6 -28 16 -39 65 -90 117 -123 21 -13 46 -35 55 -50 16 -23 16
-27 1 -41 -15 -15 -19 -15 -59 0 -24 9 -82 47 -128 84 -65 51 -80 60 -66 37
24 -35 92 -110 164 -178 69 -65 103 -123 111 -189 5 -47 9 -52 33 -55 31 -4
46 -36 55 -123 4 -41 1 -64 -11 -87 -9 -17 -16 -42 -16 -55 0 -30 -73 -151
-94 -155 -24 -5 -20 17 20 103 35 77 36 77 15 92 -17 12 -21 25 -21 76 0 34
-5 69 -10 77 -7 11 -10 3 -10 -30 -1 -73 -18 -170 -41 -232 -24 -65 -160 -227
-215 -256 -83 -45 -134 -155 -119 -257 6 -36 4 -45 -7 -45 -32 0 -78 83 -78
139 0 43 28 119 60 166 15 22 71 78 124 124 53 47 105 98 115 115 23 37 61
192 61 244 -1 44 -42 145 -91 222 -39 61 -149 184 -157 176 -2 -3 14 -34 36
-68 55 -85 62 -107 62 -193 0 -132 -38 -205 -181 -352 -126 -130 -129 -135
-129 -237 0 -68 4 -92 20 -118 26 -43 25 -58 -2 -58 -30 1 -62 27 -82 67 -22
43 -42 227 -29 256 6 12 17 41 24 65 8 29 37 71 86 125 96 108 106 130 111
251 5 111 -7 184 -44 262 -26 55 -63 98 -51 59 3 -11 18 -49 34 -85 37 -86 39
-202 5 -267 -39 -74 -181 -259 -209 -273 -16 -7 -73 -17 -128 -21 -55 -4 -112
-10 -127 -14 -20 -5 -28 -4 -28 5 0 22 74 88 111 97 41 12 149 120 191 191 47
81 53 128 33 255 -22 139 -40 166 -30 45 7 -86 7 -87 -20 -112 -16 -14 -37
-26 -48 -26 -17 0 -19 5 -13 53 11 94 9 183 -5 208 -13 22 -15 12 -20 -96 -8
-162 -31 -238 -100 -326 l-28 -35 75 2 c53 2 74 0 74 -9 0 -19 -13 -34 -37
-41 -12 -4 -38 -20 -58 -36 -20 -16 -54 -32 -74 -36 -58 -11 -73 -22 -61 -44
15 -28 -41 -90 -82 -90 -30 0 -72 36 -89 75 -7 19 -8 19 -8 -2 -1 -12 17 -59
39 -104 58 -121 56 -158 -17 -258 l-17 -23 42 7 c41 7 42 6 42 -23 0 -41 -35
-88 -108 -147 -87 -70 -104 -99 -142 -242 -6 -25 -17 -43 -25 -43 -25 0 -55
50 -55 93 0 53 20 169 32 184 6 8 2 13 -11 18 -12 3 -21 14 -21 23 0 38 69
117 153 173 102 70 108 106 43 241 -42 88 -47 157 -16 225 16 37 29 47 100 83
178 89 239 200 196 355 -7 28 -24 87 -36 133 -13 45 -27 82 -32 82 -11 0 -10
-66 1 -104 38 -122 43 -151 39 -226 -2 -60 -8 -85 -24 -107 -28 -39 -112 -82
-180 -93 -31 -5 -67 -16 -79 -24 -40 -27 -60 -164 -30 -216 9 -16 14 -55 15
-111 0 -98 -3 -104 -112 -236 -39 -48 -54 -73 -44 -73 20 0 20 2 -5 -75 -16
-50 -25 -65 -40 -65 -24 0 -43 44 -35 82 3 15 1 30 -4 33 -6 3 -10 16 -11 28
-1 13 -7 1 -16 -27 -21 -69 -11 -108 43 -160 30 -28 45 -50 42 -62 -2 -11 -26
-34 -53 -52 -41 -28 -55 -32 -85 -27 -112 20 -130 119 -51 279 22 44 47 101
57 125 32 78 95 93 73 17 -14 -48 -10 -65 7 -26 8 19 41 71 74 116 32 44 62
94 65 110 6 28 6 28 -9 9 -35 -46 -37 -47 -53 -34 -9 8 -13 23 -9 39 3 15 2
36 -1 48 -5 20 -6 20 -28 -5 l-22 -27 -32 45 c-34 47 -35 65 -7 148 11 34 14
36 50 34 32 -2 36 0 26 11 -9 11 -6 24 10 58 34 66 78 107 124 115 31 5 54 20
98 63 l58 56 0 85 c0 58 -5 91 -14 105 -8 10 -17 16 -20 13 -3 -3 -12 -39 -20
-81 -23 -120 -80 -212 -148 -238 -18 -7 -37 -18 -43 -24 -5 -6 -41 -40 -78
-76 -63 -60 -70 -63 -82 -47 -20 28 -7 53 61 116 l64 58 -43 -21 c-24 -12 -58
-27 -75 -34 -42 -18 -71 -60 -78 -116 -6 -43 -5 -46 25 -63 27 -16 31 -24 31
-59 0 -29 -5 -44 -16 -48 -23 -9 -23 -9 -32 26 -6 23 -15 34 -33 38 -29 7 -69
79 -69 126 0 43 24 117 48 152 12 16 52 45 89 65 74 39 135 81 78 53 -42 -20
-148 -41 -168 -33 -13 5 -17 19 -17 54 0 39 -6 55 -31 83 l-30 35 4 -28 c7
-47 -11 -41 -72 22 -32 34 -61 61 -65 61 -4 0 8 -21 27 -47 77 -106 86 -137
95 -310 4 -87 4 -185 0 -217 -11 -77 -47 -138 -109 -182 -27 -20 -49 -39 -49
-44 0 -4 -15 -21 -32 -37 -163 -152 -205 -183 -247 -183 -12 0 -38 16 -60 35
-21 19 -43 35 -49 35 -11 0 -22 -23 -22 -49 0 -10 -10 -31 -22 -47 l-22 -29
25 23 c34 30 83 29 114 -3 31 -31 31 -54 0 -113 -14 -26 -25 -60 -25 -77 0
-46 -15 -63 -40 -47 -18 11 -20 10 -20 -13 0 -36 -20 -79 -73 -158 -59 -86
-66 -122 -36 -181 24 -49 75 -104 86 -93 4 4 -8 22 -25 40 -64 66 -61 156 8
228 40 42 66 44 72 6 2 -17 11 -22 37 -24 l33 -3 -36 40 c-20 22 -36 46 -36
54 0 8 25 29 55 46 30 17 56 39 56 48 2 30 -2 47 -18 64 -32 36 10 169 61 195
17 9 64 51 104 94 83 89 164 152 189 147 32 -6 57 -66 57 -140 1 -37 5 -68 9
-68 4 0 16 14 25 31 9 17 34 58 55 91 22 35 40 78 44 104 3 25 10 47 16 51 12
7 27 -16 27 -43 0 -12 9 -33 20 -47 11 -14 20 -39 20 -56 0 -52 -93 -224 -160
-297 -33 -35 -60 -68 -60 -74 0 -17 -38 -11 -49 7 -9 16 -10 16 -11 -4 0 -34
-15 -36 -52 -6 -46 39 -48 42 -48 101 0 28 -2 52 -5 52 -2 0 -15 -5 -29 -11
-32 -15 -52 -69 -35 -97 15 -25 4 -88 -18 -96 -23 -9 -30 2 -41 59 -8 47 -9
48 -17 22 -6 -22 -2 -39 15 -68 15 -28 20 -48 15 -67 -9 -35 -71 -119 -94
-127 -15 -5 -18 -13 -14 -43 4 -32 -2 -48 -50 -119 -62 -93 -76 -142 -53 -178
23 -34 20 -58 -13 -123 -16 -31 -34 -76 -41 -99 -11 -37 -11 -46 9 -83 26 -51
26 -52 -2 -48 -15 2 -29 18 -44 48 -29 56 -30 136 -3 215 25 74 25 76 -5 34
-14 -19 -33 -58 -41 -87 -20 -66 -36 -68 -82 -8 -26 34 -29 90 -7 143 8 19 15
48 15 63 0 24 -3 27 -27 22 -25 -5 -25 -6 -7 -19 17 -12 17 -16 4 -56 -18 -50
-41 -57 -97 -29 -48 25 -129 111 -149 158 -27 64 5 89 41 34 11 -17 35 -39 53
-50 45 -27 50 -25 14 4 -16 14 -43 52 -60 84 -28 53 -32 69 -32 139 0 65 3 83
18 96 28 25 32 21 32 -30 0 -54 34 -120 79 -152 39 -28 41 -27 41 15 0 30 -3
34 -19 29 -13 -4 -28 5 -50 30 -44 51 -46 118 -6 209 25 58 28 90 4 44 -7 -12
-40 -60 -74 -104 -68 -89 -75 -114 -77 -261 0 -73 16 -118 70 -193 35 -47 50
-59 94 -70 25 -7 49 -25 75 -57 21 -25 66 -76 100 -112 34 -36 70 -86 81 -111
11 -25 39 -63 62 -85 47 -45 70 -83 70 -116 0 -12 17 -39 39 -60 32 -33 45
-39 80 -39 33 0 46 -6 68 -30 24 -27 32 -30 90 -30 74 0 110 15 168 70 l40 39
98 2 97 3 38 -37 c37 -36 39 -37 118 -37 78 0 80 1 128 40 35 29 57 40 82 40
51 0 81 19 103 64 34 73 79 126 106 126 33 0 62 -33 135 -157 l62 -103 -32
-63 c-18 -34 -59 -102 -91 -150 l-59 -89 46 38 c25 21 60 62 76 91 29 51 73
93 98 93 13 0 10 -33 -6 -89 -6 -21 -5 -22 15 -12 30 16 41 6 41 -37 0 -113
-10 -141 -72 -207 -37 -40 -69 -65 -88 -68 -23 -5 -35 -17 -55 -56 -13 -28
-63 -88 -109 -135 -130 -133 -219 -280 -265 -442 -10 -38 -29 -90 -40 -115
-12 -26 -35 -104 -52 -175 -35 -148 -66 -216 -153 -333 -76 -103 -112 -165
-121 -209 -8 -41 3 -41 41 0 126 137 208 300 284 563 83 285 142 451 180 506
47 66 112 145 184 219 118 122 225 239 267 292 36 45 39 55 39 110 0 71 -40
164 -139 318 -33 52 -74 119 -91 149 l-31 53 21 52 c12 28 39 71 59 96 20 24
61 79 92 122 37 52 90 107 155 162 106 89 147 140 158 197 3 20 20 55 36 78
30 41 30 41 97 41 64 0 72 3 160 55 l93 56 0 44 c0 60 46 131 144 222 129 120
259 292 296 390 11 30 31 110 45 178 23 118 24 131 13 252 -18 195 2 234 76
149 l41 -48 88 -5 c87 -6 102 -14 75 -41 -7 -7 -25 -12 -40 -12 -35 0 -35 -10
-3 -40 14 -13 25 -32 25 -42 0 -24 37 -24 75 2 26 18 45 20 156 19 137 -1 152
3 194 53 25 30 27 37 22 95 -4 34 -13 76 -22 92 -16 32 -20 127 -6 150 7 11
13 6 26 -19 13 -25 19 -30 26 -19 5 8 9 25 9 39 0 35 15 54 35 46 13 -5 15
-14 10 -44 -4 -25 -1 -43 9 -57 13 -18 14 -15 13 35 -2 53 -1 55 25 58 32 4
42 -14 50 -83 3 -22 11 -51 18 -64 18 -35 9 -216 -14 -259 -39 -74 -118 -142
-166 -142 -30 0 -24 18 20 58 29 26 44 50 55 86 22 82 27 116 17 116 -5 0 -13
-15 -16 -34 -9 -49 -80 -151 -124 -178 -34 -21 -52 -23 -201 -28 -138 -4 -162
-7 -148 -18 9 -8 13 -20 10 -28 -3 -8 1 -14 11 -14 18 0 21 -22 6 -51 -10 -17
-7 -19 25 -19 30 0 35 -3 35 -24 0 -16 -12 -34 -32 -50 -22 -17 -36 -39 -43
-68 -9 -38 -14 -44 -50 -54 -22 -7 -31 -13 -20 -13 11 -1 36 3 54 9 24 7 39 6
48 -2 10 -8 25 -6 59 7 31 12 49 14 56 7 16 -16 -20 -81 -61 -111 -20 -14 -50
-42 -68 -61 l-32 -37 55 8 c97 13 109 -7 38 -59 -25 -19 -44 -35 -42 -37 2 -2
34 3 71 11 37 9 74 13 82 10 24 -9 17 -27 -15 -39 -30 -11 -41 -27 -17 -27 6
0 32 9 56 20 66 30 79 13 35 -46 -15 -19 -25 -34 -23 -34 2 0 37 11 77 25 90
30 92 30 92 4 0 -36 -39 -89 -71 -96 -23 -4 -27 -9 -20 -22 18 -32 -14 -80
-68 -104 -39 -17 -49 -26 -45 -40 3 -9 -4 -30 -15 -46 -37 -52 -23 -54 64 -12
47 23 53 28 28 24 -46 -8 -43 11 12 64 33 31 54 43 75 43 36 0 38 -15 8 -47
l-22 -24 49 22 c28 12 64 34 80 50 17 16 34 29 38 29 14 0 7 -44 -10 -64 -18
-19 -18 -19 7 -3 33 23 70 22 70 0 0 -24 -37 -83 -52 -85 -7 0 -17 -2 -23 -3
-5 -2 -16 -3 -22 -4 -7 0 -20 -15 -28 -31 -18 -35 -104 -94 -151 -104 -20 -4
-41 -21 -60 -46 -16 -22 -32 -40 -36 -40 -4 0 -5 -13 -2 -30 5 -24 1 -35 -24
-60 -18 -17 -41 -30 -56 -30 -32 0 -43 -18 -14 -22 42 -6 35 -45 -15 -92 -24
-22 -54 -59 -66 -81 -11 -22 -54 -69 -95 -105 -81 -71 -94 -90 -44 -64 39 20
54 34 114 109 104 129 214 204 214 146 0 -29 -38 -68 -95 -100 -29 -15 -49
-33 -47 -41 9 -38 -12 -62 -100 -120 -51 -33 -88 -60 -83 -60 6 0 55 11 110
24 55 13 103 22 108 19 5 -3 7 -14 4 -24 -13 -48 47 8 68 63 4 9 26 24 50 34
24 9 79 40 121 70 73 51 114 67 114 44 0 -24 18 -5 53 55 40 70 68 93 86 72
18 -23 -27 -96 -111 -180 -55 -55 -78 -85 -78 -103 0 -16 -8 -27 -22 -33 -28
-11 -38 -6 -38 19 0 17 -3 16 -25 -6 -31 -31 -48 -23 -40 19 7 30 3 28 -57
-35 -34 -36 -79 -73 -98 -81 -19 -8 -44 -22 -55 -30 -18 -14 -15 -15 33 -15
45 0 55 4 70 25 42 59 65 83 83 83 32 0 22 -25 -38 -94 -40 -47 -64 -66 -81
-66 -14 0 -61 -28 -113 -66 -95 -71 -115 -101 -27 -42 76 52 98 62 110 50 21
-21 -60 -119 -164 -199 -58 -44 -86 -79 -73 -91 4 -4 35 23 68 60 34 37 78 76
97 87 35 21 80 28 80 13 0 -14 -71 -77 -170 -149 -100 -74 -137 -109 -127
-119 7 -7 168 118 202 156 11 13 40 31 64 42 29 12 68 45 110 91 112 122 160
165 209 187 157 73 220 109 335 196 71 53 168 136 217 184 48 48 97 93 109
100 21 11 22 13 6 30 -16 18 -16 21 14 62 18 24 31 54 31 70 0 37 25 84 51 99
16 8 18 13 9 19 -29 18 7 77 75 123 33 23 36 27 17 27 -45 0 -11 79 46 106 60
28 76 -22 25 -78 -12 -13 -13 -21 -5 -31 12 -14 -16 -88 -38 -102 -8 -5 -7
-12 6 -26 14 -16 15 -23 5 -45 -6 -15 -22 -35 -35 -45 -16 -12 -22 -26 -19
-41 6 -32 -49 -116 -81 -124 -21 -5 -24 -9 -16 -25 13 -23 -11 -86 -35 -96
-18 -6 -37 -45 -39 -79 -3 -38 -34 -73 -76 -84 -41 -11 -52 -26 -25 -36 25
-10 17 -24 -47 -85 -52 -48 -59 -58 -41 -59 22 0 63 20 138 69 98 63 148 106
198 169 30 37 69 83 87 102 32 35 33 35 41 13 9 -24 24 -30 34 -13 9 15 45 12
45 -4 0 -25 -37 -100 -59 -120 -12 -11 -38 -30 -59 -42 -43 -27 -40 -29 16
-10 49 18 63 8 52 -41 -11 -47 -32 -68 -115 -114 -65 -36 -68 -39 -35 -37 33
3 35 1 38 -31 3 -28 -3 -39 -42 -77 -26 -24 -42 -44 -36 -44 5 0 10 -21 10
-47 0 -34 -6 -53 -22 -70 -27 -28 -10 -30 43 -3 63 33 83 2 29 -43 -41 -35
-208 -129 -245 -138 l-30 -7 27 -1 c15 -1 55 13 88 31 46 24 63 29 72 20 18
-18 -19 -62 -83 -97 -51 -28 -52 -30 -26 -33 16 -2 31 -10 34 -18 8 -20 72 33
129 107 49 64 94 92 162 103 54 8 56 -11 7 -65 -25 -28 -35 -48 -35 -72 0 -25
-7 -39 -30 -55 -16 -13 -30 -31 -30 -40 0 -10 -22 -40 -50 -67 -31 -30 -50
-58 -50 -72 0 -13 -21 -46 -51 -79 -41 -45 -48 -58 -38 -70 9 -11 8 -19 -7
-35 -10 -11 -26 -18 -35 -16 -19 5 -49 -9 -49 -23 0 -22 61 -8 133 30 41 22
82 40 89 40 8 0 23 7 34 15 18 14 17 14 -10 5 -39 -14 -54 1 -33 33 17 26 97
80 135 92 16 5 24 2 29 -11 5 -13 -5 -28 -38 -56 -24 -21 -38 -38 -31 -38 30
0 5 -46 -45 -84 -41 -30 -53 -45 -53 -65 0 -32 -18 -61 -79 -123 -49 -52 -48
-62 3 -23 75 57 77 6 2 -65 -30 -29 -60 -65 -66 -81 -9 -20 -20 -29 -35 -29
-15 0 -43 -25 -93 -87 -40 -47 -70 -88 -67 -91 14 -14 171 150 393 411 113
133 152 167 152 137 0 -6 -9 -28 -20 -50 -32 -62 -26 -78 14 -42 19 17 43 33
54 36 14 5 17 13 15 34 -6 38 13 81 40 91 13 5 45 23 72 40 27 17 55 31 62 31
19 0 16 -30 -7 -68 -13 -22 -18 -41 -14 -58 8 -30 -21 -65 -106 -127 -94 -69
-130 -107 -130 -142 0 -27 -8 -35 -82 -80 l-83 -49 43 -8 43 -7 70 70 c38 39
69 75 69 80 0 23 111 125 190 177 47 30 108 77 137 103 52 49 93 63 93 33 0
-8 -7 -22 -15 -30 -8 -9 -15 -30 -15 -48 0 -37 -18 -57 -71 -79 -20 -8 -45
-30 -57 -48 -11 -19 -42 -52 -69 -74 -26 -22 -100 -90 -163 -151 -162 -156
-402 -342 -555 -429 -27 -16 -53 -33 -57 -39 -7 -10 -11 -12 -210 -114 -68
-35 -161 -84 -207 -109 -46 -25 -116 -58 -156 -73 -40 -15 -129 -63 -197 -107
-67 -44 -154 -98 -193 -121 -91 -54 -97 -59 -128 -110 -15 -23 -34 -42 -42
-42 -9 0 -51 -24 -94 -53 -131 -87 -171 -109 -235 -134 -34 -13 -108 -46 -166
-73 -125 -59 -286 -112 -338 -110 -20 1 -57 2 -82 3 -35 2 -45 -2 -48 -15 -5
-28 29 -63 58 -60 33 4 65 -20 57 -42 -8 -20 -50 -21 -66 -2 -15 18 -66 1
-113 -37 -25 -21 -39 -26 -60 -21 -25 5 -28 3 -28 -20 0 -13 -5 -28 -11 -31
-5 -4 -14 -18 -19 -31 -11 -29 -30 -31 -37 -5 -4 16 -10 17 -41 10 -21 -4 -92
-5 -159 -2 l-123 6 0 43 c0 46 -15 67 -25 35 -11 -36 -46 -71 -70 -71 -18 0
-40 21 -90 84 -78 101 -154 172 -235 221 -72 44 -99 85 -130 205 -12 47 -28
97 -36 112 -27 52 -117 150 -150 164 -19 8 -34 19 -34 24 0 6 -16 51 -35 100
-56 142 -51 185 47 410 27 63 56 142 63 175 7 34 19 74 27 90 9 17 23 62 33
102 9 39 28 86 41 105 13 18 29 49 34 70 12 43 48 93 169 232 168 193 243 282
303 361 l60 80 -88 -91 c-177 -181 -366 -390 -410 -454 -87 -123 -134 -212
-134 -251 0 -20 -7 -53 -15 -73 -8 -19 -20 -59 -26 -88 -6 -29 -22 -78 -35
-109 -12 -31 -26 -80 -30 -110 -5 -42 -14 -62 -39 -89 -70 -75 -90 -166 -61
-280 26 -103 69 -180 156 -276 91 -101 134 -178 155 -278 17 -84 40 -110 206
-236 84 -64 129 -106 162 -153 54 -75 107 -124 144 -133 44 -11 357 13 400 31
21 9 85 25 143 36 175 33 406 117 570 207 47 26 130 68 185 93 139 65 255 128
285 154 14 13 57 39 95 58 39 19 131 72 205 118 74 45 185 112 247 150 61 37
144 89 185 117 82 55 312 192 403 241 33 17 101 65 150 107 50 41 124 95 165
121 114 69 362 259 485 371 61 55 191 186 290 290 142 151 187 206 215 260 19
38 52 88 73 111 20 23 37 42 37 44 0 1 9 43 19 92 42 203 50 256 61 385 6 74
19 171 30 215 10 44 23 101 29 128 16 69 14 328 -4 410 -18 88 -55 167 -108
236 -56 73 -199 197 -267 231 -30 16 -61 38 -68 49 -6 12 -32 30 -56 41 -24
12 -54 32 -66 46 -15 15 -35 24 -54 24 -76 0 -105 18 -232 143 -139 137 -163
177 -141 230 8 17 36 60 64 94 l49 62 17 143 17 143 -113 116 c-124 128 -152
172 -142 222 9 42 35 69 94 96 26 13 55 36 64 51 20 34 84 87 189 159 132 90
147 113 284 431 l53 125 6 140 c9 194 21 271 52 324 26 45 26 45 20 212 -6
175 -20 246 -84 427 -28 78 -140 261 -260 423 -79 106 -331 355 -458 453 -44
33 -114 96 -155 138 -88 90 -236 212 -318 261 -31 19 -87 44 -124 55 -98 31
-133 51 -236 142 -191 165 -375 269 -477 270 l-40 0 44 -20z m258 -436 c67
-22 90 -47 103 -111 14 -63 5 -82 -29 -64 -21 12 -21 10 -21 -78 l0 -90 -34
-28 c-29 -24 -36 -39 -50 -106 -9 -44 -18 -83 -21 -87 -12 -19 -99 -71 -114
-68 -12 2 -17 18 -21 58 -3 30 -12 72 -20 92 -16 44 -9 55 25 40 l24 -11 -30
82 c-47 127 -54 363 -11 355 12 -2 18 -15 20 -46 2 -23 8 -42 13 -42 13 0 29
44 29 80 0 16 6 31 13 33 25 11 78 7 124 -9z m273 -43 c0 -11 -5 -23 -11 -27
-15 -9 -33 12 -26 30 9 23 37 20 37 -3z m-526 -52 c-1 -13 -5 -56 -9 -94 -7
-65 -5 -75 19 -123 28 -55 33 -88 15 -94 -7 -2 -12 -35 -13 -81 -2 -60 -7 -84
-23 -105 -32 -43 -56 -36 -70 22 -17 67 -23 69 -23 7 0 -44 -7 -66 -44 -131
-56 -99 -64 -125 -72 -232 -8 -102 -20 -126 -52 -109 -43 23 -68 104 -79 254
-5 66 -4 70 36 131 43 65 51 96 27 96 -8 0 -35 -39 -61 -86 l-47 -85 9 -87
c10 -112 10 -115 -3 -119 -14 -5 -58 63 -50 76 4 5 -5 31 -20 58 -23 43 -25
56 -22 133 4 70 10 95 35 146 19 36 41 65 56 71 14 7 44 39 67 73 65 96 109
104 137 25 16 -45 41 -76 28 -35 -4 14 -10 61 -12 105 -4 71 -2 83 17 108 12
15 30 27 40 27 16 0 19 -9 22 -62 2 -38 8 -63 16 -66 9 -3 12 15 12 70 0 56 5
81 20 106 23 37 46 38 44 1z m616 -14 c10 -12 10 -18 0 -30 -17 -21 -54 -15
-58 9 -7 32 36 48 58 21z m-100 -14 c7 -15 6 -23 -6 -35 -18 -19 -20 -19 -45
-6 -11 6 -19 21 -19 35 0 21 5 25 30 25 19 0 33 -7 40 -19z m145 -66 c0 -15
-8 -21 -29 -23 -37 -4 -54 11 -36 33 19 23 65 16 65 -10z m-106 -19 c15 -18 3
-46 -20 -46 -22 0 -34 22 -25 45 7 19 30 19 45 1z m132 -26 c24 -13 25 -46 2
-54 -15 -6 -14 -9 7 -19 34 -17 39 -54 8 -66 l-23 -8 23 -7 c33 -11 28 -75 -8
-93 -14 -7 -20 -13 -13 -13 6 0 19 -7 28 -16 17 -17 16 -22 -12 -173 -13 -71
-13 -99 -3 -180 14 -110 27 -146 65 -181 36 -33 55 -72 55 -111 0 -29 -2 -31
-26 -25 -39 10 -91 53 -150 124 -62 76 -80 140 -71 260 8 104 52 273 77 293
17 15 17 19 5 35 -20 27 -18 50 5 72 l21 19 -20 6 c-27 7 -37 35 -22 59 7 11
11 21 9 21 -50 24 -59 43 -26 56 31 13 46 13 69 1z m-107 -53 c36 -26 -16 -86
-53 -62 -17 10 -13 53 7 64 22 14 25 13 46 -2z m-159 -66 c3 -5 1 -46 -4 -91
-7 -61 -15 -90 -35 -118 -29 -43 -32 -52 -13 -52 23 0 46 34 65 91 13 42 23
56 45 63 60 22 115 -33 67 -67 -17 -12 -18 -15 -5 -20 19 -8 20 -41 2 -56 -8
-6 -29 -14 -48 -17 -58 -10 -67 -17 -29 -23 44 -8 48 -39 8 -59 -23 -11 -28
-20 -28 -48 0 -28 5 -36 26 -44 21 -8 25 -15 22 -42 -4 -42 -34 -50 -48 -13
-13 35 -32 24 -106 -60 -32 -36 -65 -64 -73 -63 -10 2 -17 -6 -19 -19 -2 -16
4 -26 22 -34 37 -17 54 -7 48 31 -5 34 8 50 42 50 16 0 18 -6 14 -42 -3 -24
-12 -60 -21 -80 -14 -33 -21 -38 -47 -38 -43 0 -95 26 -116 58 -13 20 -16 40
-11 101 3 42 8 83 11 91 5 12 -2 15 -36 14 -49 -1 -56 -13 -57 -91 -1 -37 6
-65 25 -101 23 -45 25 -57 19 -117 -11 -100 -47 -122 -92 -56 -20 30 -23 46
-23 133 0 59 -4 97 -9 93 -5 -3 -9 -67 -9 -142 1 -94 -2 -138 -10 -141 -19 -6
-113 99 -139 157 -22 47 -25 63 -20 125 3 39 15 96 27 126 24 62 160 265 175
262 23 -6 5 -98 -35 -174 -22 -43 -40 -88 -39 -100 1 -15 6 -5 15 24 11 34 23
52 49 67 23 13 42 38 60 75 38 80 110 116 117 59 3 -25 9 -19 62 62 33 50 75
123 93 163 32 69 45 83 58 63z m154 -35 c24 -29 -23 -68 -64 -52 -23 8 -18 45
8 56 32 13 43 12 56 -4z m245 -72 c13 -33 6 -81 -14 -99 -28 -26 -25 -35 10
-28 29 5 30 4 30 -30 0 -37 -19 -57 -54 -57 -39 0 -77 150 -41 164 8 3 15 16
15 30 0 34 42 50 54 20z m121 -133 c0 -8 -8 -19 -17 -25 -22 -13 -44 5 -34 29
7 20 51 16 51 -4z m15 -100 c0 -26 -21 -43 -37 -30 -16 14 -17 41 -1 57 14 14
38 -2 38 -27z m-152 -39 c2 -13 -3 -25 -13 -28 -23 -9 -38 10 -30 36 9 27 39
22 43 -8z m20 -145 c4 -20 -25 -34 -40 -19 -15 15 -1 44 19 40 10 -2 19 -11
21 -21z m-330 -54 c3 -23 -24 -56 -39 -48 -13 9 -11 49 3 63 17 17 32 10 36
-15z m672 6 c0 -25 -33 -22 -38 4 -2 12 3 17 17 17 15 0 21 -6 21 -21z m-639
-85 c18 -22 -1 -49 -36 -49 -31 0 -51 24 -42 49 8 21 60 21 78 0z m-11 -84
c11 -11 20 -24 20 -29 0 -19 -30 -32 -67 -29 -32 2 -39 7 -41 27 -7 47 52 67
88 31z m-5 -90 c11 -33 -3 -57 -37 -64 -38 -8 -53 4 -44 37 10 41 70 61 81 27z
m-288 -6 c4 -13 -23 -44 -38 -44 -11 0 -12 43 -2 54 10 10 36 3 40 -10z m129
-24 c7 -7 7 -38 1 -93 -8 -65 -6 -104 8 -187 21 -130 19 -165 -12 -165 -17 0
-35 19 -73 80 -47 74 -50 83 -50 144 0 39 8 90 22 130 25 78 32 88 61 94 12 2
24 5 28 6 3 0 10 -4 15 -9z m147 -85 c-2 -31 -17 -45 -49 -45 -52 0 -55 57 -3
71 41 12 54 6 52 -26z m-35 -97 c-3 -30 -6 -33 -38 -33 -29 0 -36 4 -38 24 -4
28 12 41 51 41 26 0 28 -3 25 -32z m-3 -89 c8 -25 -2 -39 -29 -39 -26 0 -46
17 -46 41 0 33 65 31 75 -2z m578 -66 c9 -9 -12 -33 -29 -33 -17 0 -18 27 -1
33 18 8 23 8 30 0z m-565 -25 c-4 -30 -48 -39 -48 -10 0 10 3 22 7 25 3 4 15
7 25 7 14 0 19 -6 16 -22z m465 10 c6 -19 -3 -38 -18 -38 -18 0 -26 15 -19 34
7 19 31 21 37 4z m210 -34 c11 -11 -5 -34 -24 -34 -18 0 -26 20 -12 33 8 9 28
9 36 1z m-668 -85 c7 -23 -1 -39 -20 -39 -21 0 -35 31 -24 52 11 21 36 14 44
-13z m503 15 c40 -28 24 -64 -41 -92 -40 -17 -54 -15 -60 10 -8 29 12 70 43
85 32 16 31 16 58 -3z m310 -35 c3 -30 -2 -41 -24 -58 -30 -24 -62 -27 -70 -8
-12 33 44 111 76 105 9 -2 16 -17 18 -39z m-330 -125 c4 -29 -27 -63 -65 -70
-39 -8 -52 13 -34 52 20 44 93 58 99 18z m288 -8 c10 -26 -15 -56 -46 -56 -37
0 -41 31 -8 54 28 20 47 20 54 2z m252 -13 c-3 -29 -32 -43 -50 -25 -15 15 9
52 33 52 16 0 20 -5 17 -27z m-1110 -30 c4 -25 -16 -31 -36 -11 -20 20 -14 40
11 36 14 -2 23 -11 25 -25z m-76 0 c25 -22 24 -63 -1 -63 -28 0 -53 38 -40 62
12 22 17 22 41 1z m132 -52 c11 -18 -13 -61 -34 -61 -15 0 -20 7 -20 29 0 28
10 38 37 40 6 1 14 -3 17 -8z m776 -26 c16 -20 -3 -45 -35 -45 -32 0 -51 25
-35 45 7 8 23 15 35 15 12 0 28 -7 35 -15z m258 2 c9 -10 7 -19 -4 -35 -29
-42 -68 -19 -40 23 19 28 29 31 44 12z m-990 -57 c4 -27 -17 -44 -35 -28 -16
13 -17 30 -1 46 17 17 32 10 36 -18z m862 -13 c0 -39 -41 -64 -53 -33 -7 18
20 56 39 56 8 0 14 -10 14 -23z m-397 -21 c3 -12 -30 -32 -39 -24 -11 12 5 40
21 36 9 -2 17 -7 18 -12z m266 -20 c21 -25 -4 -56 -44 -56 -31 0 -35 3 -35 25
0 37 56 59 79 31z m245 -9 c8 -13 6 -22 -11 -38 -11 -12 -26 -18 -32 -15 -15
9 -14 49 1 64 15 15 28 11 42 -11z m-982 -11 c11 -11 15 -11 24 2 17 23 64 1
64 -29 0 -19 -4 -21 -39 -16 -29 3 -41 1 -45 -9 -7 -19 -52 -18 -60 1 -9 25
12 64 36 65 4 0 13 -6 20 -14z m866 -49 c4 -31 -20 -47 -46 -30 -23 14 -25 29
-6 47 23 24 48 16 52 -17z m252 -6 c0 -21 -26 -36 -36 -20 -9 15 3 39 21 39 8
0 15 -9 15 -19z m-90 -30 c0 -20 -57 -71 -78 -71 -21 0 -35 40 -21 57 30 35
99 45 99 14z m-280 -6 c10 -13 10 -19 -5 -35 -37 -41 -108 -13 -84 32 12 23
71 24 89 3z m-580 -60 c16 -19 6 -45 -18 -45 -29 0 -48 26 -32 45 16 19 34 19
50 0z m695 5 c10 -16 -14 -50 -35 -50 -27 0 -32 13 -14 38 16 23 39 29 49 12z
m-107 -62 c3 -28 -28 -55 -48 -43 -11 7 -13 58 -3 69 17 16 48 0 51 -26z m227
12 c9 -15 -12 -47 -35 -53 -32 -8 -38 22 -11 45 26 20 37 22 46 8z m-752 -32
c17 -13 41 -51 72 -117 30 -61 -20 -70 -53 -10 -9 18 -29 47 -44 64 -46 54
-27 101 25 63z m-826 -124 c7 -19 -20 -49 -36 -40 -15 10 -14 43 2 49 21 9 27
7 34 -9z m821 4 c15 -15 16 -45 1 -54 -16 -9 -53 31 -46 50 8 19 28 21 45 4z
m-313 -188 c9 -14 -13 -50 -31 -50 -8 0 -17 7 -20 15 -11 29 35 61 51 35z
m483 -22 c-4 -44 -47 -61 -78 -33 -31 28 -21 49 25 56 22 3 44 7 48 8 5 0 7
-14 5 -31z m70 -40 c7 -7 12 -22 12 -35 0 -18 -6 -23 -24 -23 -39 0 -56 11
-56 35 0 31 45 46 68 23z m-588 -57 c0 -21 -38 -54 -52 -45 -13 8 -9 52 5 57
28 12 47 7 47 -12z m671 -53 c98 -105 120 -177 74 -246 -45 -69 -49 -66 -120
83 -77 163 -81 175 -64 186 32 20 80 10 110 -23z m-681 -58 c0 -22 -55 -62
-80 -58 -19 4 -25 45 -10 64 7 8 30 14 51 14 32 0 39 -3 39 -20z m244 -67 c12
-74 2 -116 -40 -152 -40 -36 -50 -38 -58 -13 -15 47 49 229 77 219 7 -2 16
-26 21 -54z m-394 -107 c0 -14 7 -13 132 15 45 10 61 10 70 1 15 -15 4 -26
-44 -42 -23 -7 -46 -24 -59 -43 -30 -44 -48 -57 -79 -57 -39 0 -127 -48 -155
-84 -13 -17 -47 -76 -77 -131 -76 -142 -131 -173 -218 -124 -43 24 -50 45 -51
146 -1 42 5 72 20 101 25 50 80 114 91 107 12 -7 33 -132 26 -157 -3 -13 -19
-31 -36 -40 -48 -27 -35 -58 25 -58 36 0 79 42 118 118 26 49 49 77 84 102 35
26 43 36 30 38 -27 5 -21 16 44 76 57 53 79 62 79 32z m795 -66 c3 -5 -2 -35
-11 -66 -16 -55 -16 -57 5 -85 12 -15 21 -33 21 -40 0 -6 7 -23 16 -39 18 -29
13 -60 -8 -60 -15 0 -61 79 -83 140 -14 40 -12 75 11 148 4 14 40 16 49 2z
m-502 -55 c-2 -31 -37 -69 -57 -62 -20 6 -17 43 5 71 28 35 55 31 52 -9z m209
-86 c5 -24 6 -56 2 -71 -6 -29 -29 -44 -40 -26 -8 13 -6 127 2 140 12 19 29
-1 36 -43z m-488 16 c3 -9 3 -34 0 -58 -4 -26 0 -59 10 -87 20 -57 20 -60 -4
-60 -23 0 -49 36 -52 73 -1 15 -6 27 -10 27 -15 0 -7 -46 17 -99 32 -68 41
-123 23 -138 -7 -6 -28 -14 -46 -18 -40 -8 -49 9 -28 50 23 43 10 47 -29 8
-26 -26 -41 -34 -62 -31 -26 3 -28 6 -25 47 2 37 1 42 -12 32 -28 -23 -29 9
-2 48 15 21 32 55 37 76 15 52 56 101 104 125 48 24 71 25 79 5z m-676 -56 c4
-20 -25 -52 -42 -46 -13 4 -20 33 -12 53 8 20 50 14 54 -7z m1044 -113 c18
-84 105 -156 209 -175 122 -21 169 -91 148 -220 -5 -36 -19 -81 -30 -101 -21
-37 -71 -75 -83 -63 -3 3 -6 40 -7 82 0 42 -3 69 -6 61 -32 -96 -99 -178 -125
-152 -9 9 42 163 63 188 6 8 29 14 51 14 31 0 41 -4 45 -20 3 -11 12 -20 19
-20 26 0 14 46 -22 88 -32 38 -40 42 -82 42 -39 0 -53 6 -91 38 l-46 39 0 -76
c0 -91 -18 -130 -86 -188 -39 -34 -58 -42 -121 -53 -70 -11 -78 -11 -122 9
-28 12 -46 26 -44 33 3 7 31 21 64 31 136 41 193 83 227 168 23 54 30 128 16
145 -7 9 -14 50 -15 95 -2 70 -1 80 14 77 10 -2 19 -18 24 -42z m156 17 c66
-94 99 -173 71 -173 -21 0 -98 61 -118 94 -20 32 -28 86 -14 99 14 15 43 5 61
-20z m147 -18 c17 -30 24 -53 20 -66 -8 -26 64 -97 113 -111 49 -14 142 -145
142 -201 0 -35 -52 -101 -95 -121 -58 -28 -65 -19 -64 81 1 105 -6 126 -64
191 -40 45 -87 140 -87 177 0 8 -4 17 -10 20 -14 9 -13 48 2 63 7 7 13 12 14
12 1 0 14 -20 29 -45z m363 -22 c23 -20 102 -226 102 -264 0 -30 -9 -43 -38
-58 -46 -25 -56 -9 -49 82 l7 83 -45 79 c-25 43 -45 82 -45 87 0 15 47 8 68
-9z m-198 -18 c0 -25 -23 -35 -35 -15 -10 16 2 40 20 40 9 0 15 -9 15 -25z
m68 -57 c2 -16 -1 -28 -7 -28 -25 0 -41 14 -41 37 0 20 4 24 23 21 16 -2 23
-11 25 -30z m-1818 -38 c39 -39 17 -51 -47 -28 -21 8 -33 19 -33 30 0 25 54
24 80 -2z m694 -39 c11 -18 -6 -41 -30 -41 -26 0 -32 18 -12 38 14 14 35 16
42 3z m256 -24 c0 -13 -5 -28 -12 -35 -15 -15 -58 -16 -58 -2 0 6 11 22 25 35
30 31 45 32 45 2z m-882 -35 c4 -28 -24 -40 -45 -19 -21 21 -9 49 19 45 15 -2
24 -11 26 -26z m-878 -117 c0 -18 -12 -34 -42 -55 -48 -35 -68 -38 -68 -10 0
18 81 90 101 90 5 0 9 -11 9 -25z m494 -40 c7 -20 -23 -33 -34 -14 -5 7 -6 17
-4 21 9 13 32 9 38 -7z m2336 -5 c0 -21 -34 -45 -50 -35 -14 9 -12 42 3 48 28
12 47 7 47 -13z m-627 -55 c-3 -40 -31 -74 -88 -110 -39 -24 -61 -30 -122 -33
l-73 -4 0 26 c0 22 5 26 28 26 53 0 98 21 162 75 71 61 96 66 93 20z m-1325
-31 c4 -29 -23 -51 -43 -34 -16 13 -20 42 -8 54 14 14 48 1 51 -20z m-366 -9
c-5 -24 -20 -35 -39 -28 -16 6 -17 25 -1 41 18 18 44 10 40 -13z m-4 -101 c4
-25 -32 -59 -53 -51 -34 13 -3 82 34 75 9 -2 17 -12 19 -24z m1186 10 c9 -22
-10 -51 -45 -69 -50 -27 -66 3 -28 56 22 32 63 39 73 13z m-111 0 c16 -16 -55
-104 -84 -104 -9 0 -19 6 -22 14 -7 16 18 66 40 84 18 13 55 16 66 6z m-1103
-108 c0 -20 -38 -74 -61 -86 -32 -18 -57 9 -43 47 15 45 104 78 104 39z m1260
3 c16 -29 -10 -55 -68 -68 -70 -15 -82 4 -36 58 32 38 87 44 104 10z m85 -4
c0 -22 -31 -33 -48 -16 -7 7 -6 15 3 26 17 21 45 15 45 -10z m-35 -90 c18 -21
-12 -65 -45 -65 -26 0 -41 -15 -25 -25 6 -4 5 -16 -5 -34 -11 -22 -24 -30 -56
-35 -23 -4 -46 -3 -52 3 -16 16 4 53 39 67 24 10 34 21 34 36 0 51 80 90 110
53z m120 -16 c0 -36 -82 -95 -115 -82 -19 7 -6 40 27 68 30 25 88 35 88 14z
m328 -11 c16 -16 15 -23 -4 -43 -12 -12 -19 -13 -30 -4 -8 6 -14 17 -14 23 0
13 20 36 30 36 3 0 11 -5 18 -12z m-1833 -22 c0 -39 -95 -81 -102 -45 -2 8 6
28 18 43 16 21 28 26 53 24 23 -2 31 -8 31 -22z m1198 10 c57 -13 16 -56 -54
-56 -24 0 -29 4 -29 25 0 24 24 46 44 40 6 -2 23 -6 39 -9z m-1815 -48 c4 -23
-32 -62 -51 -55 -23 9 -21 33 4 58 22 22 42 21 47 -3z m2182 -4 c0 -4 -16 -24
-35 -45 -20 -23 -35 -50 -35 -64 0 -17 -8 -29 -24 -37 -31 -13 -56 -4 -56 21
0 22 55 92 90 115 25 16 60 21 60 10z m917 -69 c-3 -19 -2 -35 4 -35 15 0 11
-36 -6 -50 -8 -7 -22 -10 -30 -6 -20 7 -19 45 1 53 15 5 15 7 0 15 -28 16 -12
58 22 58 11 0 13 -9 9 -35z m-1079 1 c5 -23 -14 -36 -51 -36 -32 0 -45 23 -26
46 18 21 73 15 77 -10z m262 -14 c0 -16 -9 -38 -20 -50 -25 -27 -109 -76 -117
-69 -13 14 12 64 51 104 52 51 86 57 86 15z m-2312 -99 c3 -93 3 -93 -22 -93
-32 0 -54 23 -62 64 -11 60 22 129 59 124 21 -3 22 -9 25 -95z m2422 77 c0
-10 -80 -80 -92 -80 -13 0 -9 43 6 62 23 31 86 43 86 18z m100 -36 c0 -27 -20
-54 -40 -54 -25 0 -27 32 -4 54 20 20 44 21 44 0z m623 -40 c12 -12 -17 -53
-44 -63 -29 -10 -39 -6 -39 16 0 31 63 67 83 47z m-923 -67 c0 -7 -16 -29 -36
-50 -40 -41 -137 -78 -156 -59 -17 17 2 52 43 79 57 37 149 56 149 30z m130
-13 c0 -30 -22 -56 -66 -75 -24 -11 -49 -17 -54 -14 -17 10 -11 41 11 61 43
39 109 56 109 28z m112 -58 c-23 -40 -62 -48 -62 -14 0 43 41 76 68 55 10 -8
9 -16 -6 -41z m638 23 c0 -24 -43 -69 -65 -69 -18 0 -20 40 -2 62 15 20 49 38
59 32 5 -3 8 -14 8 -25z m-3222 -22 c5 -40 -26 -83 -133 -186 -95 -91 -108
-100 -120 -81 -14 23 95 190 170 259 51 47 78 50 83 8z m101 -75 c11 -20 -3
-42 -26 -42 -19 0 -34 35 -21 48 17 17 36 15 47 -6z m318 -31 c-8 -67 -37
-121 -107 -196 -35 -38 -76 -97 -100 -145 -30 -60 -45 -80 -58 -78 -14 3 -17
17 -20 84 l-3 82 43 25 c60 35 150 133 183 198 32 63 44 79 58 79 6 0 8 -19 4
-49z m-1299 -34 c2 -18 -2 -29 -13 -33 -24 -9 -39 10 -31 41 9 35 40 30 44 -8z
m3392 14 c0 -28 -77 -121 -100 -121 -36 0 -19 45 44 118 24 27 56 29 56 3z
m-2320 -6 c0 -4 -7 -19 -15 -35 -15 -30 -48 -40 -60 -20 -12 19 24 60 50 60
14 0 25 -2 25 -5z m-134 -20 c8 -20 -8 -39 -63 -70 -57 -34 -80 -28 -59 14 30
57 108 93 122 56z m-821 -56 c7 -7 -2 -21 -30 -45 -96 -83 -115 -102 -115
-114 0 -9 11 -4 28 12 20 19 41 27 79 30 82 8 85 -9 14 -73 l-59 -54 -16 -125
c-9 -69 -16 -131 -16 -138 0 -22 -40 -52 -69 -52 -33 0 -141 68 -164 104 -12
18 -14 38 -10 82 6 58 6 59 -14 42 -31 -28 -36 -22 -30 36 10 97 46 147 149
207 40 24 74 52 83 69 10 19 20 27 32 24 10 -3 29 0 43 5 28 12 79 6 95 -10z
m855 -34 c0 -28 -25 -44 -42 -27 -15 15 1 52 23 52 14 0 19 -7 19 -25z m2264
-11 c5 -16 10 -35 12 -42 3 -10 11 -8 33 7 36 26 51 27 51 4 0 -39 -89 -131
-112 -117 -5 3 -6 24 -3 47 7 36 6 39 -11 32 -49 -20 -54 -18 -54 13 0 33 45
95 64 89 6 -2 15 -17 20 -33z m-2736 -48 c2 -10 -1 -23 -7 -29 -16 -16 -34 6
-26 33 8 24 28 22 33 -4z m297 -1 c0 -26 -50 -54 -66 -38 -10 10 -10 18 -1 38
10 21 18 26 40 23 19 -2 27 -9 27 -23z m-411 -5 c44 -16 28 -50 -23 -50 -22 0
-55 35 -46 49 8 14 36 14 69 1z m2723 -26 c5 -16 -39 -76 -74 -100 -26 -17
-28 -22 -15 -30 14 -9 14 -14 -4 -50 -31 -59 -154 -122 -154 -79 0 27 32 66
84 101 48 32 49 34 19 28 -28 -6 -33 -4 -33 13 0 34 43 85 90 110 46 23 81 26
87 7z m449 1 c8 -20 -13 -45 -32 -38 -14 5 -19 34 -7 46 11 12 33 7 39 -8z
m-2688 -79 c-3 -82 -2 -86 26 -115 22 -23 39 -31 63 -31 38 0 60 -32 49 -73
-8 -32 -41 -44 -139 -51 -66 -5 -84 -3 -118 14 -49 26 -79 72 -79 125 0 49 9
64 40 67 21 3 25 -2 36 -55 11 -57 27 -87 40 -75 3 4 1 23 -6 42 -25 77 26
236 76 236 12 0 14 -15 12 -84z m-547 44 c41 -22 52 -66 47 -187 -5 -103 -8
-116 -32 -148 -27 -35 -83 -60 -100 -44 -6 6 -4 27 7 56 20 57 21 108 2 186
-15 63 -13 77 19 120 22 30 28 32 57 17z m3919 -20 c0 -34 -33 -70 -65 -70
-30 0 -34 7 -24 43 10 37 33 57 66 57 19 0 23 -5 23 -30z m-3790 0 c0 -12 -28
-25 -36 -17 -9 9 6 27 22 27 8 0 14 -5 14 -10z m300 -18 c0 -35 -16 -52 -51
-52 -24 0 -39 15 -39 40 0 18 33 40 61 40 25 0 29 -4 29 -28z m2410 3 c0 -25
-28 -73 -49 -85 -30 -15 -61 -12 -61 6 0 9 17 34 39 55 40 40 71 50 71 24z
m-2954 -98 l2 -98 -37 -18 c-34 -18 -38 -18 -64 -3 -33 20 -35 50 -6 126 21
57 61 99 88 94 13 -3 16 -22 17 -101z m268 35 c-22 -34 -72 -24 -58 11 6 18
44 27 59 15 6 -6 6 -15 -1 -26z m2776 26 c0 -39 -79 -118 -117 -118 -28 0 -14
61 21 96 35 35 96 49 96 22z m140 -37 c0 -25 -14 -41 -36 -41 -25 0 -28 7 -18
34 6 17 54 23 54 7z m810 -49 c0 -20 -8 -46 -18 -58 -18 -22 -83 -64 -99 -64
-6 0 -10 21 -9 46 1 43 4 48 55 84 30 22 58 37 63 34 4 -3 8 -22 8 -42z m-915
18 c19 -31 -49 -136 -107 -166 -43 -22 -46 2 -9 67 39 67 51 82 76 97 25 14
32 15 40 2z m-2678 -26 c3 -9 -3 -21 -16 -30 -11 -8 -21 -25 -21 -38 0 -33
-21 -55 -59 -62 -33 -7 -34 -7 -28 22 11 54 38 105 60 114 34 14 57 12 64 -6z
m624 -21 c10 -28 -5 -67 -24 -60 -18 5 -37 70 -25 84 13 17 38 5 49 -24z m-82
-4 c13 -24 13 -31 -4 -74 -22 -58 -78 -123 -122 -142 -40 -16 -143 -17 -178
-1 -19 9 -28 9 -37 0 -16 -16 -38 3 -38 32 0 37 19 46 103 46 77 0 82 1 123
36 33 26 44 42 44 63 0 38 41 73 80 68 8 -1 21 -14 29 -28z m3168 15 c7 -19
-20 -49 -36 -40 -12 8 -15 39 -4 49 12 12 33 7 40 -9z m-1237 -15 c0 -32 -81
-109 -114 -109 -48 0 -29 53 36 100 49 36 78 39 78 9z m70 -42 c0 -17 -27 -73
-52 -110 -25 -36 -116 -83 -124 -64 -8 21 67 137 105 163 39 27 71 31 71 11z
m-155 -86 c10 -17 -89 -135 -145 -173 -30 -20 -60 -37 -67 -37 -25 -2 -23 21
4 52 16 18 40 50 53 71 36 60 137 116 155 87z m375 -24 c0 -18 -48 -67 -65
-67 -21 0 -18 23 6 54 21 27 59 36 59 13z m1210 -19 c0 -19 -32 -48 -52 -48
-27 0 -35 30 -13 46 23 17 65 18 65 2z m-4860 -63 c0 -36 -6 -81 -14 -100 -15
-36 -59 -71 -76 -60 -11 7 -13 140 -2 168 8 20 60 57 80 57 8 0 12 -20 12 -65z
m4524 47 c10 -17 -18 -93 -42 -112 -32 -26 -57 -10 -47 29 14 55 72 109 89 83z
m-3646 -14 c-9 -25 -203 -267 -215 -268 -26 -1 -11 39 50 136 62 97 110 144
149 144 11 0 18 -5 16 -12z m-182 -20 c9 -14 -34 -50 -55 -46 -20 4 -27 38 -9
49 19 12 56 11 64 -3z m314 -22 c0 -53 -62 -75 -68 -25 -2 18 3 29 20 37 36
17 48 14 48 -12z m3829 -15 c8 -14 6 -23 -9 -36 -23 -20 -50 -14 -50 13 0 39
42 56 59 23z m-3650 -56 c7 -29 8 -52 1 -69 -11 -30 -8 -29 -49 -15 -26 9 -30
15 -25 33 4 11 8 31 10 42 3 34 23 64 38 58 8 -3 19 -25 25 -49z m-629 4 c0
-6 -9 -22 -20 -36 -11 -14 -20 -31 -20 -38 0 -7 -7 -26 -15 -41 -16 -32 -12
-80 12 -128 19 -37 6 -49 -41 -41 -30 6 -41 15 -56 46 -22 43 -26 119 -8 152
21 40 91 96 121 97 15 0 27 -5 27 -11z m4075 0 c12 -19 -4 -74 -30 -101 -17
-19 -24 -35 -20 -50 7 -30 -26 -74 -49 -65 -22 9 -20 40 3 61 12 11 19 31 19
52 0 21 11 51 26 74 27 41 40 48 51 29z m-4467 -25 c2 -11 -11 -49 -28 -85
-42 -90 -42 -160 0 -199 20 -19 28 -34 24 -45 -14 -36 -144 15 -163 64 -6 14
-20 38 -32 53 -17 21 -20 33 -15 64 8 40 54 94 82 94 9 0 34 18 55 41 40 44
72 49 77 13z m4682 -23 c-9 -17 -8 -25 5 -37 21 -22 19 -29 -20 -73 -34 -37
-34 -38 -10 -33 21 4 25 1 25 -20 0 -14 -12 -36 -28 -51 -30 -29 -72 -36 -72
-12 0 20 22 65 32 65 4 0 8 5 8 10 0 6 -7 10 -15 10 -29 0 -28 30 1 62 19 20
25 32 17 35 -23 8 -14 51 14 73 23 18 29 19 41 7 11 -12 11 -19 2 -36z m-4012
-3 c-3 -25 -17 -32 -37 -19 -19 12 -6 41 19 41 16 0 21 -5 18 -22z m3620 -35
c4 -27 -62 -103 -89 -103 -31 0 -22 31 28 98 28 37 56 39 61 5z m242 -63 c0
-20 -27 -40 -54 -40 -22 0 -20 36 2 49 28 17 52 13 52 -9z m560 -25 c0 -35
-22 -57 -47 -48 -20 7 -15 51 7 73 26 26 40 18 40 -25z m-4317 -38 c23 -26 10
-39 -34 -35 -42 4 -71 46 -50 72 13 15 16 15 40 0 14 -9 34 -25 44 -37z m-625
1 c9 -9 6 -18 -15 -40 -30 -31 -58 -36 -67 -12 -16 42 50 84 82 52z m70 -20
c7 -7 12 -39 12 -74 0 -65 -13 -89 -47 -82 -14 3 -17 10 -13 33 3 17 5 54 4
83 0 42 3 52 16 52 9 0 21 -5 28 -12z m679 -9 c15 -15 5 -39 -16 -39 -25 0
-55 25 -47 38 9 15 49 15 63 1z m3511 -12 c5 -23 -69 -97 -97 -97 -35 0 -26
39 21 82 44 40 70 45 76 15z m-216 -27 c-6 -58 -14 -69 -77 -110 -36 -24 -68
-40 -71 -37 -14 14 9 57 62 115 59 66 91 78 86 32z m-3474 -16 c30 -21 19 -34
-28 -34 -43 0 -58 13 -40 35 16 19 40 19 68 -1z m-578 -11 c0 -16 -44 -81 -64
-95 -18 -13 -53 -9 -66 7 -19 23 2 65 33 65 13 0 34 9 47 20 28 24 50 26 50 3z
m4540 -11 c-1 -21 -16 -40 -54 -70 -40 -31 -56 -28 -56 8 0 25 8 35 47 59 49
31 63 31 63 3z m-4073 -24 c36 -34 30 -50 -18 -46 -49 3 -71 27 -50 52 18 22
40 20 68 -6z m3698 -58 c9 -15 -38 -90 -60 -95 -42 -11 -70 -10 -70 2 0 13
101 103 115 103 5 0 12 -4 15 -10z m353 -27 c4 -24 -59 -83 -88 -83 -31 0 -23
27 21 71 42 42 62 46 67 12z m372 -38 c16 -19 1 -84 -23 -99 -22 -14 -37 5
-37 47 0 56 33 85 60 52z m-380 -60 c0 -16 -64 -71 -92 -78 -55 -15 -14 62 47
88 32 14 45 11 45 -10z m-10 -95 c0 -34 -30 -61 -96 -86 -49 -19 -71 -11 -60
22 7 22 134 106 147 98 5 -3 9 -18 9 -34z m375 11 c7 -24 1 -51 -36 -167 -36
-112 -100 -217 -158 -261 -60 -46 -77 -41 -73 22 3 46 8 54 60 104 52 50 55
55 35 59 -29 4 -32 42 -4 42 12 0 21 9 25 26 4 14 18 43 31 65 14 21 25 52 25
68 0 30 13 46 45 54 37 9 44 7 50 -12z m-415 -120 c0 -20 -78 -96 -123 -120
-35 -19 -60 -8 -52 21 11 35 34 56 94 88 67 34 81 36 81 11z m168 -65 c5 -24
-38 -68 -63 -64 -27 4 -22 36 12 66 28 25 46 25 51 -2z m-518 -14 c0 -23 -57
-92 -76 -92 -34 0 -9 71 34 94 36 20 42 20 42 -2z m310 -55 c0 -24 -113 -126
-148 -133 -29 -6 -32 -4 -32 18 0 33 25 65 78 99 48 30 102 39 102 16z m200
-22 c0 -30 -29 -70 -92 -130 -165 -157 -157 -151 -174 -133 -15 14 -14 20 8
64 27 53 56 79 114 99 28 9 40 19 42 37 6 45 102 104 102 63z m-142 -33 c4
-30 -24 -62 -54 -62 -29 0 -38 14 -25 39 29 53 73 66 79 23z m-2764 -2160 c10
-17 -7 -52 -25 -52 -19 0 -41 37 -32 53 6 10 51 9 57 -1z"/>
<path d="M6015 9251 c-22 -4 -51 -14 -65 -21 l-25 -15 26 -3 c15 -2 53 8 85
22 59 25 54 29 -21 17z"/>
<path d="M3109 9143 c-25 -27 -67 -75 -94 -108 -27 -33 -70 -82 -97 -110 -51
-53 -94 -114 -145 -205 l-31 -55 -11 -236 c-10 -204 -9 -242 4 -279 23 -65 19
-147 -11 -226 -16 -44 -28 -98 -31 -149 -3 -44 -12 -92 -19 -107 -8 -15 -14
-42 -14 -60 0 -29 3 -26 34 38 29 62 34 82 38 174 5 120 22 168 87 250 23 29
40 55 37 57 -2 2 -18 -3 -35 -12 -28 -14 -32 -14 -37 0 -9 22 12 98 46 164 69
138 210 285 256 267 10 -4 14 3 14 24 0 18 14 49 36 80 52 73 29 60 -41 -23
-64 -74 -224 -195 -244 -182 -18 11 -13 95 8 129 10 17 22 50 26 74 7 42 6 43
-14 30 -12 -7 -21 -21 -21 -30 0 -10 -10 -47 -22 -83 -19 -58 -20 -70 -8 -105
23 -70 -19 -240 -60 -240 -13 0 -16 30 -8 90 4 30 12 116 18 190 18 218 35
265 139 375 37 39 84 92 105 118 21 26 54 55 74 65 28 13 38 25 43 50 4 18 17
44 30 58 16 17 18 24 8 24 -8 0 -35 -21 -60 -47z"/>
<path d="M5098 9020 c-36 -38 -78 -75 -94 -81 -20 -8 -24 -13 -14 -16 44 -14
44 -13 23 -36 -30 -33 -73 -123 -73 -152 0 -18 5 -25 19 -25 14 0 22 12 30 46
21 82 146 304 172 304 6 0 24 -11 41 -25 21 -18 41 -25 72 -25 69 0 62 13 -16
32 -40 10 -78 25 -84 33 -8 11 -23 1 -76 -55z"/>
<path d="M5077 8419 c6 -8 26 -22 43 -33 l32 -18 -17 26 c-10 14 -21 26 -25
26 -5 0 -17 3 -27 7 -15 6 -16 4 -6 -8z"/>
<path d="M4173 8109 c66 -200 73 -264 32 -305 -36 -36 -59 -28 -63 21 -4 41
-25 75 -47 75 -7 0 -37 16 -66 36 l-53 37 48 -56 c27 -30 57 -57 67 -60 22 -6
26 -47 5 -47 -8 0 -42 16 -76 35 -34 19 -74 38 -89 41 -24 6 -24 5 7 -17 19
-13 53 -38 75 -56 23 -17 87 -63 142 -102 129 -91 208 -164 203 -188 -7 -37
-42 -25 -116 41 -40 36 -86 73 -103 82 -17 8 -59 36 -93 61 -71 52 -133 86
-149 80 -10 -3 45 -41 228 -159 78 -50 329 -292 322 -311 -7 -23 -35 -18 -71
13 -19 17 -38 40 -41 51 -8 24 -283 200 -450 287 -25 13 19 -22 125 -99 266
-193 458 -361 448 -392 -9 -24 -45 -17 -95 20 -28 21 -108 84 -177 140 -166
135 -219 162 -113 58 76 -74 83 -85 71 -98 -11 -11 -209 113 -343 215 -69 53
-191 118 -260 139 -24 7 -48 21 -54 30 -6 9 -16 15 -24 12 -7 -3 -63 5 -125
17 -91 19 -130 22 -210 16 -54 -3 -116 -12 -137 -20 -58 -20 -116 -70 -142
-122 -20 -42 -21 -50 -9 -101 15 -68 34 -116 53 -132 12 -9 22 -7 51 10 33 19
48 21 144 17 135 -5 178 -24 319 -138 87 -70 102 -86 97 -105 -5 -21 -1 -23
38 -28 24 -3 61 -10 83 -16 48 -13 194 -14 214 -2 11 7 10 14 -7 37 -24 34
-71 79 -75 73 -2 -2 -8 -20 -13 -39 -13 -46 -45 -58 -108 -40 -46 13 -171 90
-253 157 -23 19 -68 48 -99 66 -71 40 -86 60 -125 167 -37 103 -39 113 -17
118 11 2 26 -11 43 -38 30 -47 45 -48 21 -1 -21 40 -20 54 5 77 16 14 35 18
97 17 87 -1 179 -29 345 -107 85 -40 112 -59 204 -147 58 -55 130 -118 159
-141 l55 -41 86 6 c84 6 87 6 132 -25 88 -59 151 -133 136 -158 -11 -18 -31
-11 -101 35 -38 24 -75 45 -81 45 -26 0 -12 -30 20 -44 71 -31 139 -98 119
-118 -8 -8 -34 4 -89 39 -104 66 -103 66 -103 54 0 -5 33 -34 73 -64 99 -75
147 -129 147 -167 0 -17 -3 -30 -6 -30 -6 0 -81 56 -223 164 -12 9 -12 8 -3
-11 7 -12 19 -26 27 -30 22 -13 104 -93 115 -113 7 -13 5 -21 -4 -29 -11 -9
-29 3 -87 59 -67 63 -153 120 -165 108 -2 -3 12 -18 33 -33 151 -113 223 -189
223 -238 0 -36 -37 -13 -129 77 -53 51 -112 101 -131 110 -29 14 -24 7 30 -41
117 -104 171 -164 168 -186 -2 -11 -8 -22 -14 -24 -7 -2 -52 30 -100 71 -49
42 -93 76 -97 76 -5 0 23 -27 62 -60 83 -72 131 -156 100 -175 -13 -8 -46 21
-65 56 -8 16 -25 29 -42 32 -15 3 -54 27 -85 53 -32 26 -60 45 -62 42 -3 -2
23 -26 57 -54 70 -55 107 -109 89 -127 -16 -16 -73 14 -137 75 -30 28 -54 48
-54 44 0 -4 42 -55 93 -114 67 -77 97 -120 106 -152 7 -25 24 -66 37 -92 24
-48 30 -78 16 -78 -14 0 -59 54 -67 80 -13 45 -95 158 -138 192 -45 35 -40 26
34 -62 26 -30 52 -65 58 -77 14 -27 14 -80 0 -88 -10 -7 -109 91 -109 108 0 4
-5 7 -10 7 -6 0 8 -24 30 -54 40 -52 77 -147 65 -166 -12 -19 -25 -10 -45 30
-12 24 -33 45 -55 56 -19 9 -54 38 -76 66 -23 27 -44 47 -46 44 -3 -3 15 -34
41 -70 49 -68 55 -86 31 -86 -15 0 -63 45 -138 129 -26 30 -50 51 -54 48 -3
-4 13 -27 36 -52 40 -44 50 -68 32 -79 -5 -4 -22 4 -38 17 -86 70 -92 65 -17
-14 44 -47 100 -113 123 -147 60 -89 67 -162 13 -133 -17 9 -19 6 -18 -32 1
-38 -1 -42 -24 -42 -20 0 -37 18 -90 97 -65 97 -147 190 -185 210 -11 6 10
-21 47 -58 75 -78 136 -168 162 -240 9 -27 24 -61 32 -76 8 -14 14 -34 14 -43
0 -26 13 -12 91 96 40 56 95 122 121 147 36 33 48 52 48 73 0 40 15 36 46 -11
30 -45 31 -45 58 -25 26 20 110 20 126 0 9 -11 11 -34 6 -80 -4 -38 -3 -65 3
-65 15 0 21 29 21 108 0 56 8 106 30 181 34 117 51 149 110 206 23 22 48 53
57 68 11 22 20 28 36 23 18 -4 26 2 42 32 15 27 28 38 48 40 33 4 33 10 2 72
-24 47 -25 58 -25 215 l0 165 51 101 c29 58 66 116 87 136 28 26 30 31 10 18
-42 -26 -72 -17 -79 25 -5 35 -6 35 -16 10 -6 -14 -13 -41 -17 -61 -7 -41 -29
-65 -47 -53 -18 11 -5 97 28 194 35 100 48 159 33 144 -6 -6 -20 -45 -31 -86
-23 -85 -65 -146 -92 -135 -14 5 -17 21 -18 79 l0 73 -20 -45 c-25 -55 -25
-56 -43 -41 -18 15 -26 59 -35 200 -6 98 -12 127 -38 186 -18 39 -45 84 -62
101 -17 17 -47 68 -66 113 -30 72 -77 154 -62 110z m150 -326 c2 -21 1 -42 -3
-46 -12 -13 -40 4 -46 29 -8 33 1 54 25 54 14 0 20 -9 24 -37z m-33 -79 c29
-18 64 -67 53 -78 -14 -14 -44 -4 -78 25 -58 51 -40 91 25 53z m-1167 -176
c33 -72 44 -105 37 -112 -8 -8 -13 -7 -19 2 -5 8 -19 19 -32 26 -14 6 -26 24
-30 43 -3 17 -16 46 -28 66 -24 38 -27 73 -8 80 23 8 32 -4 80 -105z m-69 -50
c18 -26 21 -58 6 -58 -17 0 -60 47 -60 65 0 23 37 18 54 -7z m1186 -1148 c34
-34 20 -72 -19 -50 -22 11 -36 44 -26 60 9 15 23 12 45 -10z"/>
<path d="M5961 7658 c17 -24 38 -47 47 -52 9 -6 -3 14 -26 42 -53 63 -63 68
-21 10z"/>
<path d="M4531 7633 c-7 -29 -11 -58 -9 -65 3 -7 10 10 17 39 7 29 11 58 9 65
-3 7 -10 -10 -17 -39z"/>
<path d="M3265 7565 c1 -38 6 -69 11 -68 15 4 16 69 1 104 -14 33 -15 33 -12
-36z"/>
<path d="M2661 7410 c1 -32 27 -112 28 -85 0 11 -6 40 -13 65 -10 31 -15 37
-15 20z"/>
<path d="M5046 7265 c-36 -83 -38 -93 -32 -156 7 -70 36 -183 55 -216 17 -29
14 36 -4 87 -22 62 -19 189 6 277 30 107 19 110 -25 8z"/>
<path d="M5653 7263 c-24 -25 -62 -82 -84 -127 l-40 -81 5 -100 c3 -55 6 -115
6 -132 2 -38 18 -43 45 -13 18 20 18 22 -3 66 -27 55 -28 80 -1 123 20 33 34
36 80 17 12 -5 26 5 48 33 26 33 30 44 22 60 -6 11 -11 28 -11 39 0 11 -7 23
-16 26 -11 4 -14 17 -12 43 2 29 9 41 29 50 74 35 173 -48 253 -212 96 -197
99 -210 92 -375 -4 -80 -9 -156 -12 -170 -5 -23 -4 -23 7 -6 36 58 60 264 40
356 -33 158 -93 298 -158 370 -50 56 -110 80 -197 80 -46 0 -53 -3 -93 -47z
m27 -192 c0 -11 -5 -23 -11 -27 -15 -9 -33 12 -26 30 9 23 37 20 37 -3z"/>
<path d="M3098 7239 c-27 -15 -24 -129 3 -129 5 0 9 13 9 30 0 69 96 78 213
20 59 -30 60 -30 32 -6 -83 70 -210 113 -257 85z"/>
<path d="M2569 6989 c-23 -39 -66 -128 -95 -197 -28 -70 -64 -154 -79 -187
-15 -33 -43 -98 -62 -145 -19 -47 -47 -108 -63 -135 -42 -74 -93 -223 -85
-252 3 -13 21 -41 41 -63 42 -47 115 -76 210 -86 91 -10 104 -30 104 -170 0
-83 3 -104 17 -115 29 -24 73 -102 73 -129 0 -45 54 -107 118 -138 85 -41 83
-56 -25 -171 -48 -52 -101 -116 -116 -144 -25 -45 -28 -60 -30 -161 -2 -104 0
-114 26 -163 22 -43 27 -65 27 -122 0 -38 -5 -82 -10 -97 -6 -15 -9 -29 -6
-31 8 -8 26 36 36 89 6 28 16 55 22 60 9 5 2 27 -27 80 l-40 73 0 126 c0 122
1 127 29 167 93 135 204 220 273 209 33 -6 33 -6 17 19 -10 14 -60 45 -120 74
-78 38 -110 59 -125 83 -26 42 -18 83 21 120 29 26 34 27 141 27 104 0 111 -1
135 -25 33 -33 30 -84 -6 -102 -14 -7 -25 -17 -24 -23 1 -5 2 -26 3 -45 2 -48
28 -46 75 5 30 33 36 48 36 84 0 81 -33 141 -94 173 -42 22 -183 29 -266 13
-62 -12 -70 -11 -93 6 -36 26 -35 70 2 120 54 74 186 168 257 185 27 6 64 15
82 21 55 16 134 -7 216 -65 l28 -20 -11 21 c-6 11 -35 51 -65 88 -39 48 -59
85 -71 128 -21 75 -40 113 -73 149 -25 26 -52 36 -52 19 0 -4 18 -26 40 -47
34 -34 40 -45 40 -82 0 -33 -5 -46 -22 -57 -44 -28 -71 -28 -168 4 -52 16
-103 30 -113 30 -10 0 -73 -29 -141 -64 l-124 -65 26 -36 c18 -25 22 -39 15
-46 -13 -13 -58 8 -87 40 -24 26 -36 27 -36 1 0 -32 -32 -24 -74 19 l-39 40 5
78 c4 60 11 89 32 125 29 51 88 184 140 318 49 125 122 294 166 383 20 42 36
77 34 77 -2 0 -22 -32 -45 -71z"/>
<path d="M3510 7050 c20 -13 57 -13 65 0 4 6 -11 10 -37 10 -31 0 -39 -3 -28
-10z"/>
<path d="M5091 6849 c6 -13 10 -57 7 -113 -3 -100 -1 -96 -135 -311 -84 -136
-97 -172 -97 -260 0 -44 3 -88 7 -98 13 -35 27 -5 27 59 0 60 4 72 50 150 66
112 109 197 131 263 11 30 23 59 28 65 4 6 11 48 15 92 5 69 3 89 -14 128 -10
25 -22 46 -25 46 -3 0 -1 -9 6 -21z"/>
<path d="M5191 6555 c-13 -44 -48 -128 -77 -187 -53 -106 -64 -138 -44 -138 6
0 10 11 10 24 0 13 20 64 44 113 60 120 98 218 94 246 -2 14 -12 -8 -27 -58z"/>
<path d="M3630 6217 c0 -2 14 -16 32 -33 l31 -29 -23 33 c-20 27 -40 42 -40
29z"/>
<path d="M3510 6061 c0 -29 -44 -49 -71 -33 -16 11 -19 9 -19 -8 0 -12 33 -56
79 -104 55 -59 83 -98 95 -132 9 -26 16 -51 16 -56 0 -20 -35 -4 -79 37 -26
25 -51 45 -54 45 -3 0 6 -25 20 -56 14 -30 27 -73 30 -95 3 -21 12 -44 20 -51
18 -14 40 8 85 86 16 26 44 56 63 67 47 28 45 51 -11 113 -25 28 -69 84 -97
125 -55 79 -77 97 -77 62z m120 -141 c28 -40 37 -92 17 -108 -13 -11 -22 -4
-61 47 -56 73 -59 91 -12 91 27 0 39 -7 56 -30z"/>
<path d="M4376 6007 c-12 -26 -1 -124 19 -175 20 -49 34 -50 15 0 -7 18 -16
69 -19 113 -5 54 -10 74 -15 62z"/>
<path d="M4930 5803 c0 -4 5 -15 10 -23 8 -13 10 -13 10 2 0 9 -4 20 -10 23
-5 3 -10 3 -10 -2z"/>
<path d="M3225 5600 c0 -83 -4 -123 -13 -132 -18 -18 -45 2 -53 38 -5 19 -7 6
-8 -39 -1 -45 -8 -82 -21 -109 l-19 -41 20 19 c11 10 32 18 46 19 20 0 32 9
47 35 17 29 22 56 24 156 3 88 0 128 -10 147 -12 23 -13 13 -13 -93z"/>
<path d="M3081 5643 c5 -16 23 -44 39 -63 l30 -35 -11 30 c-14 40 -49 95 -59
95 -5 0 -5 -12 1 -27z"/>
<path d="M3831 5622 c-7 -13 -10 -31 -8 -40 3 -13 7 -10 16 12 15 37 9 59 -8
28z"/>
<path d="M3931 5533 c-1 -6 -4 -20 -7 -30 -5 -17 -5 -17 6 0 6 10 9 23 6 30
-3 9 -5 9 -5 0z"/>
<path d="M5893 5319 c-25 -9 -30 -19 -10 -19 15 0 43 17 37 23 -3 3 -15 1 -27
-4z"/>
<path d="M3820 5108 c-1 -18 -7 -44 -15 -58 -16 -29 -19 -50 -6 -50 8 0 51
111 51 132 0 4 -7 8 -15 8 -10 0 -15 -10 -15 -32z"/>
<path d="M4189 5073 c-13 -16 -12 -17 4 -4 16 13 21 21 13 21 -2 0 -10 -8 -17
-17z"/>
<path d="M6155 4459 c-65 -67 -62 -67 32 -3 45 31 58 45 50 53 -6 6 -14 11
-17 11 -3 0 -32 -28 -65 -61z"/>
<path d="M6125 4335 c-16 -7 -23 -14 -15 -14 8 0 26 6 40 14 32 18 14 18 -25
0z"/>
<path d="M6371 4285 c-58 -33 -121 -84 -121 -97 0 -6 8 -4 18 5 10 10 28 17
40 17 12 0 29 11 38 26 10 14 33 36 53 50 47 31 28 31 -28 -1z"/>
<path d="M6134 4035 c-17 -13 -16 -14 15 -5 41 11 51 20 25 20 -11 0 -29 -7
-40 -15z"/>
<path d="M5879 3449 c-11 -11 -18 -23 -16 -26 7 -6 67 29 67 39 0 15 -30 8
-51 -13z"/>
<path d="M6850 3370 c-8 -5 -10 -10 -5 -10 6 0 17 5 25 10 8 5 11 10 5 10 -5
0 -17 -5 -25 -10z"/>
<path d="M6740 3320 c-19 -11 -30 -19 -25 -19 6 0 26 8 45 19 19 11 31 19 25
19 -5 0 -26 -8 -45 -19z"/>
<path d="M4380 2920 c-6 -11 -8 -20 -6 -20 3 0 10 9 16 20 6 11 8 20 6 20 -3
0 -10 -9 -16 -20z"/>
<path d="M7015 2789 c-33 -21 -53 -39 -44 -39 15 0 109 65 109 75 0 7 1 8 -65
-36z"/>
<path d="M7588 2488 c-13 -13 -17 -17 -8 -10 9 6 22 12 28 12 6 0 14 5 17 10
11 19 -14 10 -37 -12z"/>
<path d="M3965 2418 c-8 -13 -26 -60 -40 -105 -21 -69 -35 -93 -92 -160 -95
-112 -123 -153 -123 -180 0 -14 -8 -37 -19 -51 -10 -15 -30 -70 -44 -122 -14
-52 -41 -130 -61 -174 -42 -92 -46 -119 -14 -114 17 2 32 31 85 163 35 88 80
207 99 265 45 131 55 150 116 227 50 64 85 133 112 221 16 55 8 67 -19 30z"/>
<path d="M6077 2187 c-50 -46 -121 -104 -157 -129 -68 -48 -110 -88 -93 -88
21 0 136 78 201 137 66 59 160 163 148 163 -3 0 -48 -37 -99 -83z"/>
<path d="M7216 1996 c-50 -28 -94 -62 -120 -92 l-41 -48 90 62 c84 59 165 122
155 122 -3 0 -41 -20 -84 -44z"/>
<path d="M5285 1936 l7 -96 -40 -82 c-46 -94 -139 -237 -185 -286 -18 -18 -76
-65 -129 -103 -131 -93 -189 -155 -239 -253 -24 -44 -62 -119 -86 -165 -23
-46 -51 -94 -61 -105 -11 -12 -36 -54 -57 -93 -35 -68 -53 -88 -151 -167 -37
-31 -73 -90 -61 -103 4 -4 13 -1 19 5 7 7 29 12 50 12 34 0 38 3 38 25 0 24
25 41 95 66 16 5 13 7 -12 8 -18 1 -33 6 -33 12 0 6 69 122 153 258 137 222
162 256 252 346 81 82 117 110 190 148 50 26 119 66 155 90 52 34 64 47 62 65
-3 24 4 27 27 13 10 -7 28 0 60 22 42 28 71 51 174 139 l32 27 -47 1 c-51 0
-67 12 -47 36 16 19 115 16 112 -3 -5 -22 14 -14 31 12 l16 25 -50 0 c-45 0
-52 3 -60 26 -9 24 -11 24 -32 10 -35 -25 -94 -20 -123 9 -21 20 -25 35 -26
82 -1 70 -10 105 -28 111 -11 4 -12 -13 -6 -92z m104 -137 c63 -22 24 -62 -57
-57 -52 3 -66 23 -37 52 19 19 49 20 94 5z m-42 -96 c9 -22 -33 -55 -65 -51
-29 4 -48 28 -39 52 9 23 95 23 104 -1z m118 -2 c8 -15 -24 -41 -51 -41 -28 0
-31 12 -8 34 17 18 50 21 59 7z m-210 -81 c10 -16 -14 -50 -36 -50 -25 0 -35
25 -19 45 14 17 46 20 55 5z"/>
<path d="M5555 1960 c17 -4 64 -8 105 -7 l75 0 -60 7 c-33 4 -80 8 -105 8 -40
0 -42 -1 -15 -8z"/>
<path d="M5442 1895 c3 -4 47 -10 99 -16 60 -6 99 -15 111 -25 16 -16 20 -15
53 10 38 30 46 43 15 26 -14 -7 -52 -7 -127 0 -122 11 -159 12 -151 5z"/>
<path d="M6966 1825 c-22 -8 -53 -28 -70 -45 l-31 -32 50 26 c59 29 114 66
100 65 -5 0 -28 -6 -49 -14z"/>
<path d="M3603 1467 c-8 -16 -9 -29 -3 -32 12 -8 23 17 18 41 -2 14 -6 12 -15
-9z"/>
</g>
</svg>
