<?xml version="1.0" standalone="no"?>
<!DOCTYPE svg PUBLIC "-//W3C//DTD SVG 20010904//EN"
 "http://www.w3.org/TR/2001/REC-SVG-20010904/DTD/svg10.dtd">
<svg version="1.0" xmlns="http://www.w3.org/2000/svg"
 width="700.000000pt" height="700.000000pt" viewBox="0 0 700.000000 700.000000"
 preserveAspectRatio="xMidYMid meet">
<metadata>
Created by potrace 1.14, written by Peter Selinger 2001-2017
</metadata>
<g transform="translate(0.000000,700.000000) scale(0.100000,-0.100000)"
fill="#000000" stroke="none">
<path d="M3651 6629 c-36 -8 -87 -41 -111 -73 -38 -52 -38 -52 -39 -1158 l-1
-1077 -42 0 c-75 1 -210 -29 -300 -67 -136 -57 -292 -182 -379 -304 -76 -105
-159 -326 -159 -421 l0 -29 -357 -1 c-197 0 -365 -2 -373 -4 -93 -20 -160
-106 -156 -201 1 -46 69 -187 691 -1430 379 -759 699 -1395 712 -1415 28 -43
88 -78 140 -83 42 -3 110 12 131 28 40 31 71 72 81 105 8 28 11 323 11 1048 0
954 1 1009 18 1009 328 8 625 197 770 489 67 135 95 253 94 403 l0 52 361 0
c361 0 362 0 414 24 69 32 107 95 108 176 0 55 -20 96 -698 1452 -383 767
-708 1407 -721 1421 -47 51 -121 72 -195 56z m77 -2547 c353 -132 534 -499
420 -852 -66 -205 -214 -355 -433 -439 -29 -11 -43 -14 -110 -27 -34 -6 -158
-7 -195 0 -163 27 -277 83 -386 191 -91 90 -139 167 -177 290 -107 339 90 725
428 838 93 32 120 35 245 33 112 -3 134 -6 208 -34z"/>
</g>
</svg>
