<?xml version="1.0" standalone="no"?>
<!DOCTYPE svg PUBLIC "-//W3C//DTD SVG 20010904//EN"
 "http://www.w3.org/TR/2001/REC-SVG-20010904/DTD/svg10.dtd">
<svg version="1.0" xmlns="http://www.w3.org/2000/svg"
 width="700.000000pt" height="700.000000pt" viewBox="0 0 700.000000 700.000000"
 preserveAspectRatio="xMidYMid meet">
<metadata>
Created by potrace 1.14, written by Peter Selinger 2001-2017
</metadata>
<g transform="translate(0.000000,700.000000) scale(0.100000,-0.100000)"
fill="#000000" stroke="none">
<path d="M3637 6630 c-44 -13 -95 -57 -117 -100 -20 -38 -20 -61 -20 -1119 l0
-1079 -67 -7 c-114 -11 -223 -42 -328 -95 -180 -89 -309 -218 -396 -395 -51
-104 -89 -230 -89 -297 l0 -38 -370 0 c-345 0 -373 -1 -408 -19 -72 -37 -112
-104 -112 -186 0 -40 83 -210 704 -1453 530 -1060 712 -1415 735 -1435 95 -79
246 -51 308 58 l23 40 0 1021 0 1021 94 11 c310 38 562 215 697 487 59 119 87
224 96 357 l6 98 364 0 c338 0 366 1 401 19 73 37 112 104 112 189 0 45 -58
166 -694 1438 -381 764 -706 1405 -722 1423 -50 60 -138 85 -217 61z m70
-2545 c114 -39 178 -79 269 -169 90 -91 140 -172 176 -286 33 -110 32 -283 -4
-393 -70 -212 -233 -375 -445 -445 -67 -22 -96 -25 -203 -25 -107 0 -136 3
-203 25 -210 70 -375 234 -444 443 -22 68 -26 99 -27 200 -1 138 20 224 81
333 43 78 145 188 221 238 65 44 179 90 254 104 90 16 236 4 325 -25z"/>
</g>
</svg>
